<?xml version="1.0" standalone="no"?>
<!DOCTYPE svg PUBLIC "-//W3C//DTD SVG 20010904//EN"
 "http://www.w3.org/TR/2001/REC-SVG-20010904/DTD/svg10.dtd">
<svg version="1.0" xmlns="http://www.w3.org/2000/svg"
 width="200.000000pt" height="200.000000pt" viewBox="0 0 200.000000 200.000000"
 preserveAspectRatio="xMidYMid meet">
<metadata>
Created by potrace 1.14, written by Peter Selinger 2001-2017
</metadata>
<g transform="translate(0.000000,200.000000) scale(0.100000,-0.100000)"
fill="#000000" stroke="none">
<path d="M116 1679 c-9 -11 -16 -20 -16 -22 0 -1 377 -2 837 -2 l838 0 1 -517
c0 -363 -3 -518 -10 -519 -6 -1 -126 -2 -266 -3 -140 -1 -260 -5 -267 -9 -6
-4 -14 -3 -18 3 -4 7 -13 6 -27 -1 -11 -6 -18 -7 -15 -2 7 11 -165 9 -183 -2
-8 -5 -11 -4 -6 3 7 12 -32 11 -53 -3 -8 -5 -12 -4 -8 1 3 5 -12 9 -33 9 -21
0 -36 -4 -33 -9 4 -5 0 -6 -7 -1 -8 5 -165 9 -349 11 -185 1 -341 2 -347 3 -8
1 -11 143 -9 499 1 338 -2 502 -9 511 -8 11 -8 13 2 7 6 -4 12 -2 12 3 0 16
-25 13 -39 -3 -8 -10 -11 -160 -11 -538 l1 -525 857 1 857 1 0 560 0 560 -841
1 c-816 2 -842 1 -858 -17z"/>
<path d="M660 1560 c-42 -5 -43 -6 -23 -18 12 -6 29 -12 37 -12 8 0 20 -9 26
-19 10 -20 15 -493 5 -503 -12 -12 -91 15 -117 39 -15 14 -30 42 -35 62 -5 21
-15 36 -23 36 -12 0 -14 -15 -12 -79 2 -44 5 -82 7 -86 7 -11 780 -6 780 5 0
6 -11 12 -25 13 -59 8 -60 12 -60 283 l0 249 33 -4 c17 -2 37 -4 44 -5 24 -2
72 -60 78 -95 8 -40 34 -50 36 -13 1 43 -3 142 -6 145 -6 6 -696 7 -745 2z
m225 -95 c-1 -71 8 -100 25 -75 5 8 10 23 10 33 0 48 74 107 133 107 l24 0 0
-237 c0 -131 -3 -248 -8 -260 -16 -43 -27 -23 -26 44 2 77 -15 96 -33 36 -16
-52 -42 -81 -87 -96 -72 -25 -68 -38 -69 228 -1 132 2 250 7 263 15 40 26 23
24 -43z"/>
<path d="M244 871 c-2 -2 -4 -14 -4 -25 1 -20 2 -20 14 -3 7 9 20 17 27 17 19
0 20 -120 2 -142 -10 -12 -6 -14 27 -14 34 1 39 4 34 20 -5 16 -7 70 -5 128 1
23 25 13 39 -15 10 -21 11 -20 11 9 l1 31 -71 -1 c-38 0 -72 -2 -75 -5z"/>
<path d="M449 861 c5 -9 8 -41 9 -71 0 -60 23 -90 68 -90 43 0 64 33 64 100 0
39 4 60 12 60 21 0 -3 14 -30 17 -19 3 -23 1 -13 -6 9 -6 15 -30 16 -66 2 -45
-2 -62 -16 -76 -15 -15 -24 -17 -39 -9 -17 9 -20 21 -20 73 0 35 5 68 10 73 8
8 -1 11 -29 11 -33 0 -39 -3 -32 -16z"/>
<path d="M668 868 c16 -16 16 -130 0 -146 -7 -7 -10 -12 -7 -13 26 -4 79 -4
79 1 0 3 -5 11 -11 17 -6 6 -9 21 -7 34 4 23 5 22 26 -12 13 -20 30 -39 40
-41 21 -6 47 2 35 11 -5 3 -19 20 -30 37 -21 30 -21 30 -2 42 22 14 25 45 5
61 -20 17 -144 25 -128 9z m95 -28 c6 -22 -19 -54 -34 -45 -5 4 -9 19 -9 36 0
22 5 29 19 29 10 0 21 -9 24 -20z"/>
<path d="M904 857 c-33 -29 -39 -94 -10 -126 39 -43 122 -35 145 15 42 93 -59
176 -135 111z m85 -5 c26 -48 11 -142 -23 -142 -30 0 -49 38 -44 91 5 49 18
69 45 69 7 0 17 -8 22 -18z"/>
<path d="M1105 870 c-3 -6 -1 -10 4 -10 7 0 11 -27 11 -70 0 -49 -4 -70 -12
-70 -10 0 -9 -3 1 -9 7 -5 22 -6 33 -3 15 4 16 7 6 13 -7 5 -13 29 -14 60 l-1
52 21 -25 c12 -13 38 -44 58 -69 l37 -44 2 60 c1 33 0 68 -1 78 -1 10 3 24 9
31 8 9 4 12 -14 12 -24 0 -33 -10 -17 -20 4 -2 9 -22 10 -43 l2 -38 -44 49
c-43 48 -79 66 -91 46z"/>
<path d="M1327 868 c11 -18 13 -137 2 -144 -18 -11 -8 -19 25 -19 33 -1 33 0
28 37 -4 34 -2 38 17 38 38 0 61 19 61 49 0 34 -14 41 -88 47 -41 3 -51 1 -45
-8z m88 -19 c11 -16 -4 -59 -20 -59 -10 0 -15 11 -15 35 0 35 20 49 35 24z"/>
<path d="M1519 867 c16 -16 15 -147 -1 -147 -8 0 -7 -4 3 -10 9 -5 28 -6 45 0
16 4 23 9 17 9 -8 1 -13 14 -13 33 l0 31 25 -23 c15 -14 23 -30 20 -41 -5 -14
0 -16 27 -14 18 2 37 4 41 4 5 1 -11 24 -35 52 l-43 51 37 32 37 33 -34 0
c-25 0 -32 -4 -25 -12 7 -8 0 -21 -20 -40 l-30 -29 0 32 c0 18 5 32 10 32 6 0
10 3 10 8 0 4 -19 8 -41 9 -31 1 -39 -1 -30 -10z"/>
<path d="M583 463 c0 -9 4 -10 14 -2 7 6 13 12 13 14 0 1 -6 2 -13 2 -8 0 -14
-6 -14 -14z"/>
<path d="M770 460 c0 -5 5 -10 11 -10 5 0 7 5 4 10 -3 6 -8 10 -11 10 -2 0 -4
-4 -4 -10z"/>
<path d="M858 437 c-3 -19 -2 -25 4 -19 6 6 8 18 6 28 -3 14 -5 12 -10 -9z"/>
<path d="M600 440 c-13 -8 -12 -10 3 -10 9 0 17 5 17 10 0 12 -1 12 -20 0z"/>
<path d="M634 435 c3 -23 12 -26 13 -5 1 11 -2 20 -7 20 -4 0 -7 -7 -6 -15z"/>
<path d="M675 440 c3 -5 8 -10 11 -10 2 0 4 5 4 10 0 6 -5 10 -11 10 -5 0 -7
-4 -4 -10z"/>
<path d="M907 439 c7 -9 9 -20 5 -25 -4 -4 1 -2 11 5 9 7 17 19 16 25 0 6 -3
6 -6 -2 -4 -10 -8 -10 -21 0 -15 11 -15 11 -5 -3z"/>
<path d="M976 433 c-6 -14 -5 -15 5 -6 7 7 10 15 7 18 -3 3 -9 -2 -12 -12z"/>
<path d="M1070 436 c-6 -8 -19 -12 -28 -9 -14 5 -15 3 -4 -8 10 -11 16 -10 34
9 12 12 20 22 16 22 -3 0 -11 -6 -18 -14z"/>
<path d="M1184 429 c-19 -22 -19 -22 4 -8 12 8 22 17 22 21 0 12 -6 9 -26 -13z"/>
<path d="M1252 430 c0 -14 2 -19 5 -12 2 6 2 18 0 25 -3 6 -5 1 -5 -13z"/>
<path d="M1320 440 c0 -5 5 -10 11 -10 5 0 7 5 4 10 -3 6 -8 10 -11 10 -2 0
-4 -4 -4 -10z"/>
<path d="M799 423 c-13 -16 -12 -17 4 -4 16 13 21 21 13 21 -2 0 -10 -8 -17
-17z"/>
<path d="M826 423 c-6 -14 -5 -15 5 -6 7 7 10 15 7 18 -3 3 -9 -2 -12 -12z"/>
<path d="M1150 429 c0 -5 5 -7 10 -4 6 3 10 8 10 11 0 2 -4 4 -10 4 -5 0 -10
-5 -10 -11z"/>
<path d="M707 419 c7 -7 15 -10 18 -7 3 3 -2 9 -12 12 -14 6 -15 5 -6 -5z"/>
<path d="M1216 422 c-3 -5 1 -9 9 -9 8 0 12 4 9 9 -3 4 -7 8 -9 8 -2 0 -6 -4
-9 -8z"/>
</g>
</svg>
